<svg xmlns="http://www.w3.org/2000/svg" viewBox="0 0 66.83 34.55"><defs><style>.cls-1{fill:#fff;}</style></defs><g id="Camada_2" data-name="Camada 2"><g id="Camada_1-2" data-name="Camada 1"><path class="cls-1" d="M66.75,30.73c.07,4.93-7.66,4.92-7.6,0-.38-2,.62-19.23-.39-20.48-1,.11-18.35,20.8-19.61,21.9a8.14,8.14,0,0,1-11.54,0C26.35,31,9,10.47,8,10.25c-.91,1.11-.17,18.57-.4,20.48C7.73,35.62,0,35.68,0,30.78c0,0,0-23.08,0-23.13C-.41,2.31,5.5-2,10.24,1c2.95,1.4,19.14,21.74,21.95,23.83C35,28.14,51.79,4.19,53.74,3.3h.08c4-6,13.58-2.94,13,4.35Z"/></g></g></svg>