<svg width="203" height="125" xmlns="http://www.w3.org/2000/svg" xmlns:xlink="http://www.w3.org/1999/xlink" xml:space="preserve" version="1.1">
 <style type="text/css">.st0{fill:#FAFAFA;}
	.st1{fill:#FF5C39;}
	.st2{clip-path:url(#SVGID_2_);fill:url(#SVGID_3_);}
	.st3{clip-path:url(#SVGID_2_);fill:url(#SVGID_4_);}</style>
 <g>
  <title>Layer 1</title>
  <g id="svg_13">
   <path id="svg_14" d="m89.6,123.9c-5.9,0 -11.6,-1.7 -16.6,-4.9c-0.2,-0.2 -1.3,-1 -1.3,-1l8.5,-13.2c0,0 1,0.9 1.2,1c1.8,1.2 3.9,1.9 6.2,2.2c0.7,0.1 1.3,0.1 2,0.1c4.7,0 9.1,-2.2 12,-5.9c0.1,-0.1 0.7,-0.8 0.8,-1c0,0 11.4,-17.7 11.4,-17.8c3.3,-5.2 9.3,-8.5 15.5,-8.5c5.9,0 12.3,3.5 15.5,8.5c0,0 11.3,17.7 11.3,17.7c4.8,7.4 15.6,9.2 22.4,3.5c5,-4.2 7,-11.5 4.5,-17.5c-0.3,-0.8 -0.8,-1.6 -1.3,-2.4c0,0 -39.7,-61.9 -39.7,-61.9c-2.7,-4.3 -7.8,-7 -12.8,-7c-5.2,0 -10.1,2.6 -12.9,7l-5.3,8.3l19.3,30.2l-0.5,0l-0.3,0c-0.1,0 -0.2,0 -0.3,0c-4.4,0 -8.6,0.9 -12.7,2.6c-0.6,0.3 -1.3,0.6 -1.9,0.9l-0.4,0.2l-12.5,-19.4l-17.7,27.6c0,0 -21.9,34 -21.9,34c0,0 -1.6,2.4 -1.6,2.4c-9,14.1 -28.5,18.4 -42.7,9.3c-14.3,-9.2 -18.5,-28.3 -9.3,-42.7c0,0 39.6,-61.9 39.7,-61.9c5.6,-8.7 15.6,-14.2 26,-14.2c10.6,0 20.4,5.3 26.1,14.2l1.4,2.3c0,0 1.4,-2.2 1.4,-2.2c5.6,-8.8 15.5,-14.2 26,-14.2c10.6,0 20.4,5.3 26.1,14.2l39.7,61.9c4.4,6.9 5.9,15.2 4.1,23.3c-1.8,8.1 -6.6,15 -13.5,19.4c-5,3.2 -10.7,4.9 -16.6,4.9c-10.6,0 -20.4,-5.3 -26.1,-14.2l-11.2,-17.7c-0.7,-1 -1.6,-1.2 -2.3,-1.3c-0.6,0 -1.6,0.2 -2.3,1.3l-11.4,17.8c-3.3,5.1 -8,9.1 -13.7,11.6c-4,1.7 -8.1,2.5 -12.3,2.5zm-15.2,-108c-5.2,0 -10.1,2.6 -12.9,7l-39.7,61.9c-4.5,7.1 -2.5,16.5 4.6,21.1c7,4.5 16.6,2.4 21.1,-4.6l11.4,-17.8l33.6,-52.3c0,0 -5.3,-8.3 -5.3,-8.3c-2.7,-4.3 -7.7,-7 -12.8,-7z" class="st1"/>
   <g id="svg_15">
    <defs transform="translate(-1 0) translate(-44 -136) translate(1 0)">
     <path d="m133.6,259.9c-5.9,0 -11.6,-1.7 -16.6,-4.9c-0.2,-0.2 -1.3,-1 -1.3,-1l8.5,-13.2c0,0 1,0.9 1.2,1c1.8,1.2 3.9,1.9 6.2,2.2c0.7,0.1 1.3,0.1 2,0.1c4.7,0 9.1,-2.2 12,-5.9c0.1,-0.1 0.7,-0.8 0.8,-1c0,0 11.4,-17.7 11.4,-17.8c3.3,-5.2 9.3,-8.5 15.5,-8.5c5.9,0 12.3,3.5 15.5,8.5c0,0 11.3,17.7 11.3,17.7c4.8,7.4 15.6,9.2 22.4,3.5c5,-4.2 7,-11.5 4.5,-17.5c-0.3,-0.8 -0.8,-1.6 -1.3,-2.4c0,0 -39.7,-61.9 -39.7,-61.9c-2.7,-4.3 -7.8,-7 -12.8,-7c-5.2,0 -10.1,2.6 -12.9,7l-5.3,8.3l19.3,30.2l-0.5,0l-0.3,0c-0.1,0 -0.2,0 -0.3,0c-4.4,0 -8.6,0.9 -12.7,2.6c-0.6,0.3 -1.3,0.6 -1.9,0.9l-0.4,0.2l-12.5,-19.4l-17.7,27.6c0,0 -21.9,34 -21.9,34c0,0 -1.6,2.4 -1.6,2.4c-9,14.1 -28.5,18.4 -42.7,9.3c-14.3,-9.2 -18.5,-28.3 -9.3,-42.7c0,0 39.6,-61.9 39.7,-61.9c5.6,-8.7 15.6,-14.2 26,-14.2c10.6,0 20.4,5.3 26.1,14.2l1.4,2.3c0,0 1.4,-2.2 1.4,-2.2c5.6,-8.8 15.5,-14.2 26,-14.2c10.6,0 20.4,5.3 26.1,14.2l39.7,61.9c4.4,6.9 5.9,15.2 4.1,23.3c-1.8,8.1 -6.6,15 -13.5,19.4c-5,3.2 -10.7,4.9 -16.6,4.9c-10.6,0 -20.4,-5.3 -26.1,-14.2l-11.2,-17.7c-0.7,-1 -1.6,-1.2 -2.3,-1.3c-0.6,0 -1.6,0.2 -2.3,1.3l-11.4,17.8c-3.3,5.1 -8,9.1 -13.7,11.6c-4,1.7 -8.1,2.5 -12.3,2.5zm-15.2,-108c-5.2,0 -10.1,2.6 -12.9,7l-39.7,61.9c-4.5,7.1 -2.5,16.5 4.6,21.1c7,4.5 16.6,2.4 21.1,-4.6l11.4,-17.8l33.6,-52.3c0,0 -5.3,-8.3 -5.3,-8.3c-2.7,-4.3 -7.7,-7 -12.8,-7z" id="SVGID_1_"/>
    </defs>
    <clipPath transform="translate(-1 0) translate(-44 -136) translate(1 0)" id="SVGID_2_">
     <use id="svg_16" xlink:href="#SVGID_1_"/>
    </clipPath>
    <path id="svg_17" d="m101.9,45.7l9.3,-14.5l21.4,33.3l-0.5,0c-0.8,-0.1 -1.7,-0.1 -2.5,-0.1c-4.1,0 -7.9,0.8 -11.5,2.3c-0.4,0.2 -0.7,0.3 -1,0.5c-0.2,0.1 -0.4,0.2 -0.6,0.3l-0.2,0.1l-14.4,-21.9z" class="st2"/>
    <path id="svg_18" d="m101.9,16.7l-1.4,-2.3c-5.7,-8.9 -15.4,-14.2 -26.1,-14.2c-5.9,0 -11.6,1.7 -16.6,4.9l-0.2,0.2c-3.7,2.4 -6.7,5.5 -9.1,9.2l-0.7,1.1l0.2,0.2c4.6,3.4 7.8,8.5 8.8,13.9l0.1,0.7l4.8,-7.4c2.8,-4.4 7.6,-7 12.9,-7c2.9,0 5.7,0.8 8.2,2.4l0.2,0.1c1.8,1.2 3.2,2.7 4.4,4.5l5.3,8.3l9.2,-14.6z" class="st3"/>
   </g>
  </g>
 </g>
</svg>