<svg xmlns="http://www.w3.org/2000/svg" viewBox="0 0 62.01 34.44"><defs><style>.cls-1{fill:#fff;}</style></defs><g id="Camada_2" data-name="Camada 2"><g id="Camada_1-2" data-name="Camada 1"><path class="cls-1" d="M55.33,23.89c4,2.16,11.13,8.69,2.85,10.55C48,29.23,38.39,20.33,25.92,21H10.19c-3.9.33-2,7.27-2.45,9.64.11,4.85-7.65,5-7.59.05,0,0,0-7.6,0-7.64A9.56,9.56,0,0,1,9.7,13.45H51.6c3.88.07,3.87-5.89,0-5.85H4A3.8,3.8,0,1,1,4,0H51.3c14-.2,13.73,21.6-.3,21,1.42.88,2.86,1.84,4.34,2.88"/></g></g></svg>