<svg xmlns="http://www.w3.org/2000/svg" xmlns:xlink="http://www.w3.org/1999/xlink" viewBox="0 0 349.82 34.47">
    <defs>
        <style>.cls-1{fill:none;}.cls-2{clip-path:url(#clip-path);}.cls-3{fill:#fff;}</style>
        <clipPath id="clip-path" transform="translate(-306.98 -277.19)">
            <rect class="cls-1" width="960.09" height="540" />
        </clipPath>
    </defs>
    <g id="Camada_2" data-name="Camada 2">
        <g id="Camada_1-2" data-name="Camada 1">
            <g class="cls-2">
                <path class="cls-3" d="M373.71,307.86a3.77,3.77,0,0,1-3.8,3.79,3.79,3.79,0,0,1-3.8-3.79V290.63c0-2.16-.13-3.25-.39-3.25s-1,.72-2.21,2.14l-17.4,19.76a6.39,6.39,0,0,1-2.53,1.79,9.34,9.34,0,0,1-6.48,0,6.46,6.46,0,0,1-2.53-1.79l-17.39-19.76c-1.21-1.42-1.95-2.14-2.21-2.14s-.4,1.09-.4,3.25v17.23a3.76,3.76,0,0,1-3.79,3.79,3.77,3.77,0,0,1-3.8-3.79V284.78a8.17,8.17,0,0,1,1.82-5.38,6.08,6.08,0,0,1,5-2.21,6.26,6.26,0,0,1,3.4.95,14.6,14.6,0,0,1,2.77,2.29l18.18,20.71a7.43,7.43,0,0,0,1,.83,2,2,0,0,0,1.23.44,2.08,2.08,0,0,0,1.22-.44,8.14,8.14,0,0,0,1-.83l18.1-20.71h.08a8.23,8.23,0,0,1,2.69-2.37,7.07,7.07,0,0,1,3.47-.87,6.11,6.11,0,0,1,5,2.21,8.22,8.22,0,0,1,1.82,5.38Z" transform="translate(-306.98 -277.19)" />
                <path class="cls-3" d="M391.25,311.65a8.71,8.71,0,0,1-3.48-.74,10,10,0,0,1-3.08-2.1,11.12,11.12,0,0,1-2.21-3.24,10.15,10.15,0,0,1-.87-4.27v-7.12a3,3,0,0,1,1.22-2.84,7.88,7.88,0,0,1,3.84-.71h53a3.8,3.8,0,1,1,0,7.59H389.2v3.87a1.8,1.8,0,0,0,.67,1.39,2.62,2.62,0,0,0,1.78.59h49.81a3.8,3.8,0,0,1,2.68,6.48,3.64,3.64,0,0,1-2.68,1.1ZM381.61,281a3.76,3.76,0,0,1,3.79-3.79h56.06a3.8,3.8,0,0,1,2.68,6.48,3.64,3.64,0,0,1-2.68,1.1H385.4a3.76,3.76,0,0,1-3.79-3.79" transform="translate(-306.98 -277.19)" />
                <path class="cls-3" d="M508.33,301.1q2.22,1.54,4.51,3.36a7.17,7.17,0,0,1,1.5,1.46,3.14,3.14,0,0,1,.64,1.94,3.77,3.77,0,0,1-3.8,3.79,4.22,4.22,0,0,1-2.69-1.1q-3.24-2.37-6.64-4.59a61.9,61.9,0,0,0-7.07-3.95,42.62,42.62,0,0,0-7.63-2.76,32.39,32.39,0,0,0-8.23-1H463.19a2.85,2.85,0,0,0-2.45,2.92v6.72a3.6,3.6,0,0,1-1.14,2.69,3.7,3.7,0,0,1-2.65,1.1,3.77,3.77,0,0,1-3.8-3.79v-7.59a9.73,9.73,0,0,1,.75-3.75,10,10,0,0,1,2-3.09,9.41,9.41,0,0,1,3-2.05,9.51,9.51,0,0,1,3.8-.75h41.9a3,3,0,0,0,2.09-.83,2.82,2.82,0,0,0,0-4.15,2.92,2.92,0,0,0-2.09-.87H457a3.8,3.8,0,1,1,0-7.59H504.3a10.43,10.43,0,0,1,4.15.83,11.07,11.07,0,0,1,3.4,2.25,10.52,10.52,0,0,1,2.3,3.32,10.33,10.33,0,0,1-2.3,11.54,11.07,11.07,0,0,1-3.4,2.25,10.26,10.26,0,0,1-4.15.84H504q2.13,1.33,4.34,2.88" transform="translate(-306.98 -277.19)" />
                <path class="cls-3" d="M532.53,311.65a8.73,8.73,0,0,1-3.49-.74,10,10,0,0,1-3.08-2.1,11.12,11.12,0,0,1-2.21-3.24,10.15,10.15,0,0,1-.87-4.27v-7.12a3,3,0,0,1,1.22-2.84,7.88,7.88,0,0,1,3.84-.71h53a3.8,3.8,0,1,1,0,7.59H530.47v3.87a1.8,1.8,0,0,0,.67,1.39,2.62,2.62,0,0,0,1.78.59h49.81a3.8,3.8,0,0,1,2.68,6.48,3.64,3.64,0,0,1-2.68,1.1ZM522.88,281a3.77,3.77,0,0,1,3.8-3.79h56.05a3.8,3.8,0,0,1,2.68,6.48,3.64,3.64,0,0,1-2.68,1.1H526.68a3.77,3.77,0,0,1-3.8-3.79" transform="translate(-306.98 -277.19)" />
                <path class="cls-3" d="M645,303.08a8.15,8.15,0,0,0,2.73-2.41,8.33,8.33,0,0,0,1.34-3.12,15.27,15.27,0,0,0,.36-3.13,15.1,15.1,0,0,0-.36-3.12,8.26,8.26,0,0,0-1.34-3.12,8.18,8.18,0,0,0-2.73-2.42,9,9,0,0,0-4.42-1H608.66a8.92,8.92,0,0,0-4.47,1,8.17,8.17,0,0,0-4,5.54,15.1,15.1,0,0,0-.36,3.12,15.27,15.27,0,0,0,.36,3.13,8.13,8.13,0,0,0,4,5.53,8.81,8.81,0,0,0,4.47,1H640.6a8.84,8.84,0,0,0,4.42-1m11.78-8.66a19.45,19.45,0,0,1-1,6.05,18.56,18.56,0,0,1-2.88,5.53,15.77,15.77,0,0,1-4.58,4.07,11.78,11.78,0,0,1-6.1,1.58h-36a11.49,11.49,0,0,1-5.77-1.77,15.9,15.9,0,0,1-4.31-4.07,19.12,19.12,0,0,1-2.72-5.46,19.68,19.68,0,0,1-.95-5.93,19.39,19.39,0,0,1,1-6,18.41,18.41,0,0,1,2.89-5.54,15.51,15.51,0,0,1,4.58-4.07,11.8,11.8,0,0,1,6.08-1.58h36.06a11.47,11.47,0,0,1,5.76,1.78,15.76,15.76,0,0,1,4.31,4.07,18.71,18.71,0,0,1,2.73,5.45,19.73,19.73,0,0,1,.95,5.93" transform="translate(-306.98 -277.19)" />
            </g>
        </g>
    </g>
</svg>